HIERARCHY
ROOT hip
{
  OFFSET 0.0 0.0 0.0
  CHANNELS 6 Xposition Yposition Zposition Zrotation Yrotation Xrotation
  JOINT torso
  {
    OFFSET 0.0 0.0 0.0
    CHANNELS 3 Zrotation Xrotation Yrotation
    JOINT neck
    {
      OFFSET -31.42098999999993 328.8025209999999 74.3554680000002
      CHANNELS 3 Zrotation Xrotation Yrotation
      JOINT head
      {
        OFFSET 3.3519900000001144 303.81732099999994 206.53942900000015
        CHANNELS 3 Zrotation Xrotation Yrotation
        End Site
        {
          OFFSET 0.0 0.0 0.0
        }
      }
    }
    JOINT left_collar
    {
      OFFSET -31.42098999999993 328.8025209999999 74.3554680000002
      CHANNELS 3 Zrotation Xrotation Yrotation
      JOINT left_upper_arm
      {
        OFFSET -124.490479 -8.162841999999841 8.226441000000023
        CHANNELS 3 Zrotation Xrotation Yrotation
        JOINT left_forearm
        {
          OFFSET -253.595764 -1.5758060000000569 105.0729980000001
          CHANNELS 3 Zrotation Xrotation Yrotation
          JOINT left_hand
          {
            OFFSET -269.48803699999996 0.1478270000000066 -55.346191999999974
            CHANNELS 3 Zrotation Xrotation Yrotation
            End Site
            {
              OFFSET 0.0 0.0 0.0
            }
          }
        }
      }
    }
    JOINT right_collar
    {
      OFFSET -31.42098999999993 328.8025209999999 74.3554680000002
      CHANNELS 3 Zrotation Xrotation Yrotation
      JOINT right_upper_arm
      {
        OFFSET 162.02484099999998 0.46441600000002836 2.2303470000001653
        CHANNELS 3 Zrotation Xrotation Yrotation
        JOINT right_forearm
        {
          OFFSET 240.01246700000004 -25.835875999999985 121.34179699999959
          CHANNELS 3 Zrotation Xrotation Yrotation
          JOINT right_hand
          {
            OFFSET 252.48539699999992 18.910399999999868 -67.53466800000001
            CHANNELS 3 Zrotation Xrotation Yrotation
            End Site
            {
              OFFSET 0.0 0.0 0.0
            }
          }
        }
      }
    }
  }
}
MOTION
Frames: 11
Frame Time: 0.01
-290.8731989999997 305.00649999999973 1583.530273 -0.6486756042672743 1.101574524556337 11.157088548555397 3.732930284531692 2.176698027474014 -0.5697052724836047 1.955408288635926 0.0964354244938441 -1.3293128250895603 0.0 0.0 0.0 -1.914046628414229 0.07304430335810866 -4.0798273120273185 -6.6437263778625395 -7.581513101418018 -56.08806672079114 -7.803670577852139 -0.255371770773663 -26.745538994423327 0.0 0.0 0.0 -1.7175325903959107 -0.2146803883852354 -19.510684601108775 9.647259411706075 -4.6590545188077055 61.91966092160996 5.546950971440975 -1.0738783625586548 20.908397262408368 0.0 0.0 0.0
-290.8624879999997 305.1278689999997 1583.406128 -0.7280282217942381 1.0724067857165385 11.206773694286 3.8225395147047787 2.2039832177037026 -0.5849560257181673 1.9507583705511873 0.14870037975189626 -1.3262526202724687 0.0 0.0 0.0 -2.102899409925782 0.05323409827261147 -4.067832166530865 -6.591967368892017 -7.524131435555414 -56.12994415071245 -7.998680552232873 -0.2543092703825411 -26.644734068945187 0.0 0.0 0.0 -1.6472582482899796 -0.20489681307185487 -19.621416908901658 9.698935416033414 -4.739715353310762 62.02833509678595 5.671521815550616 -1.0603712468967164 20.877847233536485 0.0 0.0 0.0
-290.8598939999997 305.10641499999974 1583.634277 -0.5750509702230946 0.7197529421949925 11.852062532567238 3.835997768916847 2.3962448836072228 -0.5629772451697077 2.249444046182328 0.22694853759103284 -1.5290863582960226 0.0 0.0 0.0 -2.019411434296122 0.09628482391516627 -4.785747715882549 -6.989527908412376 -7.9998244007313435 -56.08019556290891 -8.17297858803378 -0.24551803602309966 -26.44980683546133 0.0 0.0 0.0 -1.7991715177504084 -0.23755134331484426 -20.269071825615313 9.842799195223957 -4.965730893489724 61.95194922793841 6.031696792414605 -0.9973991447174865 20.59957208166065 0.0 0.0 0.0
-290.8252869999997 305.2440799999997 1583.509277 -0.6577705199487557 0.644055140710807 11.820656678326488 3.9102486788232915 2.480166383215587 -0.5675084940596639 2.2338753669029954 0.27636701656269413 -1.518548530696212 0.0 0.0 0.0 -2.099195254063635 0.08570065284361998 -4.744500418764765 -7.0250862769532105 -8.040809372900904 -56.064768183313355 -8.363036099238169 -0.2446589494560985 -26.36486630082528 0.0 0.0 0.0 -1.7851117484164953 -0.2358615699768288 -20.316899051475406 9.945751737376325 -5.128123775756962 62.18354861998548 6.172234972946132 -0.9614358385976588 20.403905269233533 0.0 0.0 0.0
-290.73495499999973 305.30972299999974 1583.464478 -0.9298141701045816 0.8854351066192012 11.635554310995024 4.117828238992323 2.2659350215454785 -0.6386140500918366 2.0938098798692066 0.4050250240927245 -1.4236887210392353 0.0 0.0 0.0 -2.102285908798296 0.07436713497128941 -4.51249573740544 -7.104999039056776 -8.12604754806814 -55.981496274733225 -8.525638197913398 -0.24496755528989367 -26.309067420584576 0.0 0.0 0.0 -1.7093664872205547 -0.22079990069429892 -20.109949309079937 10.08193477957546 -5.342664546313011 62.186107442218635 6.323038515525368 -0.9377157040586429 20.315893875166747 0.0 0.0 0.0
-290.7925719999997 305.45068399999974 1583.293579 -0.5781041222009611 0.5816704616203401 11.838922541409085 3.8396183010505887 2.5324468241524896 -0.5461472817565773 2.2001481354429964 0.465009657543416 -1.4958024382249882 0.0 0.0 0.0 -2.19982714680275 0.08078742343864645 -4.8718479261942464 -7.204360951040539 -8.237682850475847 -55.92056965286419 -8.688544306818823 -0.23971302212068948 -26.18255652360019 0.0 0.0 0.0 -1.7926345954077783 -0.23899270888167812 -20.460823634893277 10.224566656062896 -5.5689548784976335 62.32153323383809 6.486834527021067 -0.8952854158193351 20.09223798311367 0.0 0.0 0.0
-290.80233799999974 305.5232849999997 1583.213867 -0.46357323198431316 0.6085108903120738 11.742527604188721 3.7119667143568513 2.502597110300681 -0.5236240518205196 2.175444650276906 0.5291371707625075 -1.479119336978647 0.0 0.0 0.0 -2.1624596047501106 0.07941363450851142 -4.755804649412702 -7.363893119745273 -8.441574854816231 -55.996652208481386 -8.850953296430955 -0.2318460682409457 -26.027323846510768 0.0 0.0 0.0 -1.789703123879065 -0.23887783366697857 -20.489260560508363 10.367298529238383 -5.796699575244276 62.46829644031409 6.648927435775588 -0.8550169238008702 19.889286425497165 0.0 0.0 0.0
-290.6697689999997 305.6281739999997 1582.869141 -1.0938353991917846 1.3260618926113648 10.764468551095185 4.060341100178943 2.0003594609938933 -0.6613412943588072 1.800961956501236 0.45922433888212916 -1.225348779404796 0.0 0.0 0.0 -1.6151579610558093 0.06518418079048698 -3.337761135926412 -7.755166085679063 -8.991589458679787 -56.492336798297615 -8.851699368273936 -0.20470196156333229 -25.67895354418895 0.0 0.0 0.0 -1.5605473122219413 -0.1887636538079066 -19.406949321103482 10.527025915992802 -6.0496336924903185 62.47789809551998 6.678734494133879 -0.8191947651069251 19.633531948644496 0.0 0.0 0.0
-290.7737119999997 305.74224899999973 1582.984619 -0.5035311248814469 0.6089910459939939 11.825048602728977 3.7704695431129855 2.4982851244332447 -0.5362659856058625 2.214781542154325 0.6329341975608511 -1.5058233337662617 0.0 0.0 0.0 -1.795590551237251 0.10619254455057787 -4.500555754782007 -7.991666588418261 -9.285028319042233 -56.5219347654665 -9.053323679021695 -0.1947847293682462 -25.499777997822235 0.0 0.0 0.0 -1.840150170413282 -0.2493163769536183 -20.639314226340527 10.670984919598045 -6.2803058511066885 62.59034357520319 6.9278461866100765 -0.77890197674989 19.499069564614565 0.0 0.0 0.0
-290.7207949999997 305.97061199999973 1582.538696 -0.5963457733390319 1.028554216528862 11.156553368509426 3.702135031234597 2.2473993108288868 -0.5542236246781432 1.9729130330187157 0.5686839967671088 -1.3420413340975654 0.0 0.0 0.0 -1.6739112725859526 0.08350512280143184 -3.805862478677835 -8.084474075458088 -9.401353819134462 -56.54035125227413 -9.116683257460826 -0.18729500988024517 -25.390628703345577 0.0 0.0 0.0 -1.62853892218386 -0.2049936829903508 -19.885193762525272 10.721515302639416 -6.358946745522594 62.53813331190756 6.934201511052221 -0.7632544333718165 19.385068054009924 0.0 0.0 0.0
-290.7215879999997 306.0995789999997 1582.388184 -0.5874013724011807 1.0308063074140632 11.13010103202891 3.6917414856488127 2.26263431669187 -0.5501081308068136 1.962392245186726 0.5988427651532426 -1.3349741597941702 0.0 0.0 0.0 -1.6601875432057016 0.08097225361486934 -3.7297924606414026 -8.231249341444473 -9.590928539922446 -56.60250395802095 -9.246447745499585 -0.17896542562571344 -25.257821014708316 0.0 0.0 0.0 -1.5527812650621358 -0.19415410235866049 -20.01009182613696 10.780707236161165 -6.459162625277598 62.757890908621086 7.052321742041352 -0.7101967230182755 19.069088380469367 0.0 0.0 0.0
